<?xml version="1.0" encoding="utf-8"?>
<!-- Generator: Adobe Illustrator 23.0.1, SVG Export Plug-In . SVG Version: 6.00 Build 0)  -->
<svg version="1.1" id="Layer_1" xmlns="http://www.w3.org/2000/svg" xmlns:xlink="http://www.w3.org/1999/xlink" x="0px" y="0px"
	 viewBox="0 0 80 80" style="enable-background:new 0 0 80 80;" xml:space="preserve">
<style type="text/css">
	.st0{fill:#45C8AF;}
	.st1{fill:#FFFFFF;}
</style>
<g>
	<circle class="st0" cx="40" cy="40" r="40"/>
</g>
<g>
	<path class="st1" d="M10.88,23.49v5.54c0,0,13.85-7.64,28.75,0v-5.54C24.49,15.73,10.88,23.49,10.88,23.49z"/>
	<path class="st1" d="M39.63,29.03v5.54c15.13,7.76,28.75,0,28.75,0v-5.54C68.38,29.03,56.49,37.67,39.63,29.03z"/>
	<path class="st1" d="M10.88,34.57v5.54c0,0,13.85-7.64,28.75,0v-5.54C24.49,26.81,10.88,34.57,10.88,34.57z"/>
	<path class="st1" d="M39.63,40.11v5.54c15.13,7.76,28.75,0,28.75,0v-5.54C68.38,40.11,56.49,48.75,39.63,40.11z"/>
	<path class="st1" d="M10.88,45.65v5.54c0,0,13.85-7.64,28.75,0v-5.54C24.49,37.89,10.88,45.65,10.88,45.65z"/>
	<path class="st1" d="M39.63,51.19v5.54c15.13,7.76,28.75,0,28.75,0v-5.54C68.38,51.19,56.49,59.84,39.63,51.19z"/>
</g>
</svg>
